# xmcd CD database file
# Copyright (C) 1993-2000  Ti Kan
#
# Track frame offsets:
#	150
#	33263
#	54211
#	78977
#	110253
#	153026
#	189267
#
# Disc length: 2836 seconds
#
# Revision: 1
# Processed by: cddbd v1.4PL0 Copyright (c) Steve Scherf et al.
# Submitted via: xmcd 2.6 PL0
#
DISCID=3f0b1207
DTITLE=John Mayall - The Turning Point
DYEAR=1900
DGENRE=
TTITLE0=The Laws Must Change
TTITLE1=Saw Mill Gulch Road
TTITLE2=I'm Gonna Fight For You J.B.
TTITLE3=So Hard To Share
TTITLE4=California
TTITLE5=Thoughts About Roxanne
TTITLE6=Room To Move
EXTD=
EXTT0=
EXTT1=
EXTT2=
EXTT3=
EXTT4=
EXTT5=
EXTT6=
PLAYORDER=
